<svg xmlns="http://www.w3.org/2000/svg" viewBox="0 0 393 390" role="img" aria-label="MAARU symbol">
  <path fill="#172B33" fill-rule="evenodd" d="M180 37L181 37L181 34L182 34L182 32L184 31L184 29L185 29L185 28L187 28L188 26L190 26L190 25L192 25L192 24L204 24L204 25L206 25L206 26L208 26L208 27L209 27L209 28L210 28L210 29L211 29L211 30L212 30L212 31L214 32L214 34L215 34L215 37L216 37L216 47L215 47L215 49L214 49L214 51L213 51L213 53L212 53L212 54L211 54L211 55L210 55L209 57L207 57L207 58L205 58L205 59L202 59L202 60L194 60L194 59L191 59L191 58L189 58L189 57L187 57L187 56L186 56L186 55L185 55L185 54L183 53L183 51L181 50L181 47L180 47ZM226 62L227 62L227 59L228 59L228 58L229 58L230 56L239 56L239 57L243 57L243 58L246 58L246 59L249 59L249 60L251 60L251 61L254 61L254 62L256 62L256 63L259 63L259 64L261 64L261 65L263 65L263 66L265 66L265 67L267 67L267 68L269 68L269 69L271 69L271 70L273 70L274 72L276 72L277 74L279 74L279 75L281 75L282 77L284 77L285 79L287 79L287 80L288 80L289 82L291 82L291 83L292 83L292 84L293 84L293 85L294 85L295 87L297 87L297 88L298 88L298 89L299 89L299 90L300 90L300 91L301 91L301 92L302 92L302 93L303 93L303 94L304 94L304 95L305 95L305 96L306 96L306 97L307 97L307 98L308 98L308 99L309 99L309 100L311 101L311 103L312 103L312 104L313 104L313 105L314 105L314 106L316 107L316 109L317 109L317 110L319 111L319 113L321 114L321 116L322 116L322 117L323 117L323 119L325 120L325 122L326 122L326 124L328 125L328 127L329 127L329 129L330 129L330 131L331 131L331 133L332 133L332 135L333 135L333 137L334 137L334 139L335 139L335 141L336 141L336 144L337 144L337 146L338 146L338 149L339 149L339 152L340 152L340 155L341 155L341 158L342 158L342 162L343 162L343 166L344 166L344 169L345 169L345 174L346 174L346 179L347 179L347 187L348 187L348 218L347 218L347 225L346 225L346 231L345 231L345 235L344 235L344 239L343 239L343 243L342 243L342 246L341 246L341 249L340 249L340 252L339 252L339 255L338 255L338 257L337 257L337 260L336 260L336 262L335 262L335 264L334 264L334 266L333 266L333 268L332 268L332 270L331 270L331 272L330 272L330 274L328 275L328 277L327 277L327 279L325 280L325 282L323 283L323 285L321 286L321 288L320 288L320 289L318 290L318 292L317 292L317 293L316 293L316 294L314 295L314 297L313 297L313 298L312 298L312 299L311 299L311 300L310 300L310 301L309 301L309 302L308 302L308 303L307 303L307 304L306 304L306 305L305 305L305 306L304 306L303 308L301 308L301 309L300 309L300 310L299 310L299 311L298 311L298 312L297 312L296 314L294 314L294 315L293 315L292 317L290 317L290 318L282 318L282 317L281 317L281 316L280 316L280 315L278 314L278 305L279 305L279 303L280 303L280 302L282 302L282 301L283 301L284 299L286 299L286 298L287 298L288 296L290 296L290 295L291 295L291 294L292 294L292 293L293 293L293 292L294 292L294 291L295 291L295 290L296 290L296 289L297 289L297 288L299 287L299 285L300 285L300 284L301 284L301 283L302 283L302 282L304 281L304 279L305 279L305 278L307 277L307 275L308 275L308 274L309 274L309 272L311 271L311 269L312 269L312 267L314 266L314 264L315 264L315 262L316 262L316 260L317 260L317 258L318 258L318 256L319 256L319 254L320 254L320 251L321 251L321 249L322 249L322 246L323 246L323 243L324 243L324 240L325 240L325 236L326 236L326 233L327 233L327 228L328 228L328 222L329 222L329 215L330 215L330 189L329 189L329 182L328 182L328 176L327 176L327 171L326 171L326 167L325 167L325 164L324 164L324 160L323 160L323 158L322 158L322 155L321 155L321 152L320 152L320 150L319 150L319 147L318 147L318 145L317 145L317 143L316 143L316 141L315 141L315 139L314 139L314 137L313 137L313 135L311 134L311 132L310 132L310 130L308 129L308 127L306 126L306 124L305 124L305 123L303 122L303 120L302 120L302 119L300 118L300 116L299 116L299 115L298 115L298 114L297 114L297 113L296 113L296 112L295 112L295 111L294 111L294 110L293 110L293 109L292 109L292 108L291 108L291 107L290 107L290 106L289 106L289 105L288 105L288 104L287 104L287 103L286 103L286 102L285 102L285 101L284 101L284 100L283 100L282 98L280 98L280 97L279 97L278 95L276 95L276 94L275 94L274 92L272 92L272 91L271 91L271 90L269 90L268 88L266 88L266 87L264 87L263 85L261 85L261 84L259 84L259 83L257 83L257 82L255 82L255 81L252 81L252 80L250 80L250 79L248 79L248 78L245 78L245 77L243 77L243 76L240 76L240 75L237 75L237 74L234 74L234 73L231 73L231 72L229 72L229 71L228 71L228 69L227 69L227 67L226 67ZM73 120L74 120L74 117L75 117L75 115L76 115L76 114L77 114L77 113L79 112L79 110L80 110L80 109L81 109L81 108L82 108L82 107L84 106L84 104L85 104L85 103L86 103L86 102L87 102L87 101L88 101L88 100L89 100L89 99L90 99L90 98L91 98L91 97L92 97L93 95L95 95L95 94L96 94L96 93L97 93L97 92L98 92L99 90L101 90L101 89L102 89L103 87L105 87L106 85L108 85L108 84L109 84L109 83L111 83L112 81L114 81L114 80L116 80L116 79L118 79L118 78L120 78L120 77L122 77L122 76L124 76L124 75L126 75L126 74L129 74L129 73L131 73L131 72L134 72L134 71L137 71L137 70L142 70L142 69L148 69L148 68L160 68L160 67L165 67L165 68L181 68L181 69L187 69L187 70L191 70L191 71L195 71L195 72L199 72L199 73L202 73L202 74L204 74L204 75L207 75L207 76L209 76L209 77L212 77L212 78L214 78L214 79L216 79L216 80L218 80L219 82L221 82L221 83L223 83L224 85L226 85L227 87L229 87L230 89L232 89L232 90L233 90L233 91L234 91L234 92L236 93L236 97L237 97L237 100L236 100L236 103L235 103L235 104L234 104L233 106L231 106L231 107L225 107L225 106L223 106L222 104L220 104L220 103L219 103L218 101L216 101L215 99L213 99L213 98L211 98L211 97L209 97L209 96L207 96L207 95L205 95L205 94L203 94L203 93L201 93L201 92L199 92L199 91L196 91L196 90L193 90L193 89L189 89L189 88L185 88L185 87L179 87L179 86L168 86L168 85L160 85L160 86L150 86L150 87L144 87L144 88L141 88L141 89L137 89L137 90L135 90L135 91L132 91L132 92L130 92L130 93L128 93L128 94L126 94L126 95L124 95L124 96L122 96L122 97L120 97L120 98L119 98L119 99L117 99L116 101L114 101L114 102L113 102L112 104L110 104L110 105L109 105L109 106L108 106L107 108L105 108L105 109L104 109L104 110L103 110L103 111L102 111L102 112L101 112L101 113L100 113L100 114L99 114L99 115L98 115L98 116L97 116L97 117L95 118L95 120L94 120L94 121L93 121L93 122L92 122L92 123L90 124L90 126L89 126L89 127L88 127L87 129L84 129L84 130L80 130L80 129L78 129L78 128L76 128L76 127L75 127L75 125L74 125L74 122L73 122ZM82 250L83 250L83 248L85 247L85 245L87 244L87 242L88 242L88 240L89 240L89 238L91 237L91 235L92 235L92 233L94 232L94 230L95 230L95 228L97 227L97 225L98 225L98 223L100 222L100 220L101 220L101 218L102 218L102 216L104 215L104 213L105 213L105 211L107 210L107 208L108 208L108 206L109 206L109 204L111 203L111 201L112 201L112 199L114 198L114 196L115 196L115 194L117 193L117 191L118 191L118 189L120 188L120 186L121 186L121 184L122 184L122 182L124 181L124 179L125 179L125 177L127 176L127 174L128 174L128 172L130 171L130 169L131 169L131 167L133 166L133 164L134 164L134 162L136 161L136 159L137 159L137 157L139 156L139 154L140 154L140 152L142 151L142 149L143 149L143 147L144 147L145 145L147 145L147 146L148 146L148 147L150 148L150 150L152 151L152 153L153 153L153 155L155 156L155 158L157 159L157 161L159 162L159 164L161 165L161 167L163 168L163 170L165 171L165 173L166 173L166 175L168 176L168 178L170 179L170 181L172 182L172 184L174 185L174 187L176 188L176 190L178 191L178 193L180 194L180 196L182 197L182 199L184 200L184 202L186 203L186 205L187 205L187 206L189 207L189 209L190 209L190 211L189 211L189 212L187 213L187 215L186 215L185 217L183 217L183 218L182 218L181 220L179 220L179 221L178 221L178 220L176 220L176 219L175 219L175 217L173 216L173 214L171 213L171 211L170 211L170 210L168 209L168 207L166 206L166 204L165 204L165 203L164 203L164 201L162 200L162 198L160 197L160 195L158 194L158 192L156 191L156 189L154 188L154 186L152 185L152 183L151 183L151 182L149 181L149 179L148 179L147 177L145 177L145 179L144 179L144 181L142 182L142 184L141 184L141 186L139 187L139 189L138 189L138 191L136 192L136 194L135 194L135 196L133 197L133 199L132 199L132 201L130 202L130 204L129 204L129 206L128 206L128 208L126 209L126 211L124 212L124 214L123 214L123 216L122 216L122 218L120 219L120 221L119 221L119 223L117 224L117 226L116 226L116 228L114 229L114 231L113 231L113 233L112 233L112 235L110 236L110 238L109 238L109 240L107 241L107 243L106 243L106 245L105 245L105 247L103 248L103 250L102 250L102 252L100 253L100 255L99 255L99 257L98 257L98 259L97 259L96 261L93 261L93 262L90 262L90 261L87 261L87 260L85 260L85 259L83 258L83 255L82 255ZM206 209L207 209L207 207L209 206L209 204L211 203L211 201L213 200L213 198L214 198L214 197L216 196L216 194L218 193L218 191L220 190L220 188L222 187L222 185L224 184L224 182L226 181L226 179L228 178L228 176L230 175L230 173L232 172L232 170L233 170L233 168L235 167L235 165L237 164L237 162L239 161L239 159L241 158L241 156L243 155L243 153L245 152L245 150L247 149L247 147L248 147L249 145L251 145L251 146L253 147L253 149L254 149L254 151L256 152L256 154L257 154L257 156L259 157L259 159L260 159L260 161L262 162L262 164L263 164L263 166L264 166L264 167L265 167L265 169L267 170L267 172L268 172L268 174L269 174L269 176L271 177L271 179L273 180L273 182L274 182L274 184L276 185L276 187L277 187L277 189L279 190L279 192L280 192L280 194L282 195L282 197L283 197L283 199L284 199L284 200L285 200L285 202L287 203L287 205L288 205L288 207L289 207L289 209L291 210L291 212L292 212L292 214L294 215L294 217L295 217L295 219L297 220L297 222L298 222L298 224L300 225L300 227L301 227L301 229L303 230L303 232L304 232L304 234L306 235L306 237L307 237L307 239L309 240L309 242L311 243L311 245L312 245L312 247L314 248L314 250L315 250L315 253L314 253L314 257L312 258L312 260L311 260L311 261L307 261L307 262L304 262L304 261L301 261L301 260L299 259L299 257L297 256L297 254L296 254L296 252L295 252L295 250L293 249L293 247L292 247L292 245L291 245L291 243L289 242L289 240L288 240L288 238L287 238L287 236L285 235L285 233L284 233L284 231L282 230L282 228L281 228L281 226L279 225L279 223L278 223L278 221L276 220L276 218L275 218L275 216L273 215L273 213L272 213L272 211L270 210L270 208L269 208L269 206L267 205L267 203L266 203L266 201L265 201L265 200L264 200L264 198L262 197L262 195L261 195L261 193L259 192L259 190L258 190L258 188L256 187L256 185L255 185L255 183L253 182L253 180L252 180L252 178L251 178L250 176L248 177L248 179L246 180L246 182L245 182L245 184L244 184L244 185L242 186L242 188L240 189L240 191L238 192L238 194L236 195L236 197L235 197L235 198L233 199L233 201L231 202L231 204L229 205L229 207L227 208L227 210L226 210L226 211L224 212L224 214L222 215L222 217L221 217L221 218L219 219L219 221L217 221L217 220L215 220L215 219L214 219L214 218L213 218L212 216L210 216L210 215L208 214L208 212L206 211ZM332 291L333 291L333 288L334 288L334 286L336 285L336 283L337 283L338 281L340 281L340 280L342 280L342 279L344 279L344 278L347 278L347 277L354 277L354 278L357 278L357 279L359 279L359 280L361 280L361 281L362 281L362 282L363 282L363 283L364 283L364 284L366 285L366 287L367 287L367 289L368 289L368 293L369 293L369 298L368 298L368 302L367 302L367 304L366 304L366 306L365 306L365 307L364 307L364 308L363 308L362 310L360 310L359 312L356 312L356 313L344 313L344 312L341 312L340 310L338 310L338 309L337 309L337 308L335 307L335 305L334 305L334 303L333 303L333 300L332 300ZM205 354L206 354L206 352L207 352L207 351L208 351L209 349L211 349L211 348L220 348L220 347L227 347L227 346L232 346L232 345L238 345L238 344L242 344L242 343L245 343L245 342L249 342L249 341L252 341L252 340L255 340L255 339L258 339L258 338L261 338L261 337L264 337L264 336L266 336L266 335L269 335L269 334L271 334L271 333L273 333L273 332L275 332L275 331L277 331L277 330L279 330L279 329L281 329L281 328L283 328L283 327L285 327L285 326L287 326L288 324L290 324L290 323L292 323L293 321L295 321L295 320L296 320L297 318L299 318L299 317L300 317L301 315L303 315L303 314L304 314L304 313L305 313L306 311L308 311L309 309L317 309L317 310L319 310L319 311L321 312L321 314L322 314L322 321L321 321L321 323L320 323L319 325L317 325L317 326L316 326L316 327L315 327L314 329L312 329L312 330L311 330L310 332L308 332L307 334L305 334L305 335L304 335L304 336L302 336L301 338L299 338L299 339L297 339L296 341L294 341L294 342L292 342L291 344L289 344L289 345L287 345L287 346L285 346L285 347L283 347L283 348L281 348L281 349L279 349L279 350L276 350L276 351L274 351L274 352L272 352L272 353L269 353L269 354L266 354L266 355L264 355L264 356L261 356L261 357L257 357L257 358L254 358L254 359L251 359L251 360L247 360L247 361L243 361L243 362L239 362L239 363L234 363L234 364L227 364L227 365L220 365L220 366L210 366L210 365L208 365L208 364L206 363L206 360L205 360Z"/>
  <path fill="#F06F61" fill-rule="evenodd" d="M43 195L44 195L44 188L45 188L45 182L46 182L46 177L47 177L47 173L48 173L48 169L49 169L49 166L50 166L50 163L51 163L51 160L52 160L52 157L53 157L53 154L54 154L54 152L55 152L55 150L56 150L56 149L57 149L58 147L61 147L61 146L64 146L64 147L67 147L67 148L69 148L69 149L70 149L70 151L71 151L71 153L72 153L72 158L71 158L71 160L70 160L70 163L69 163L69 166L68 166L68 168L67 168L67 171L66 171L66 175L65 175L65 179L64 179L64 184L63 184L63 189L62 189L62 196L61 196L61 223L62 223L62 230L63 230L63 236L64 236L64 241L65 241L65 245L66 245L66 249L67 249L67 252L68 252L68 255L69 255L69 258L70 258L70 260L71 260L71 263L72 263L72 266L73 266L73 268L74 268L74 270L75 270L75 272L76 272L76 274L77 274L77 276L78 276L78 278L80 279L80 281L81 281L81 283L83 284L83 286L84 286L84 288L85 288L85 289L86 289L86 291L87 291L87 292L89 293L89 295L90 295L90 296L92 297L92 299L93 299L93 300L94 300L94 301L95 301L95 302L96 302L96 303L98 304L98 306L100 306L100 307L101 307L101 308L102 308L102 309L103 309L103 310L104 310L104 311L105 311L105 312L106 312L106 313L107 313L107 314L108 314L108 315L109 315L110 317L112 317L112 318L113 318L113 319L114 319L115 321L117 321L117 322L118 322L119 324L121 324L122 326L124 326L124 327L125 327L125 328L127 328L128 330L130 330L130 331L132 331L133 333L135 333L135 334L137 334L137 335L139 335L139 336L142 336L142 337L144 337L144 338L146 338L146 339L148 339L148 340L151 340L151 341L154 341L154 342L157 342L157 343L160 343L160 344L164 344L164 345L168 345L168 346L173 346L173 347L179 347L179 348L183 348L183 349L184 349L184 350L185 350L185 351L187 352L187 355L188 355L188 358L187 358L187 361L186 361L186 363L185 363L185 364L183 364L183 365L180 365L180 366L178 366L178 365L172 365L172 364L166 364L166 363L162 363L162 362L158 362L158 361L154 361L154 360L151 360L151 359L148 359L148 358L145 358L145 357L143 357L143 356L140 356L140 355L138 355L138 354L135 354L135 353L133 353L133 352L131 352L131 351L129 351L129 350L127 350L127 349L125 349L124 347L122 347L122 346L120 346L119 344L117 344L117 343L115 343L114 341L112 341L111 339L109 339L109 338L108 338L107 336L105 336L105 335L104 335L104 334L103 334L102 332L100 332L100 331L99 331L99 330L98 330L98 329L97 329L97 328L96 328L96 327L95 327L94 325L92 325L92 324L91 324L91 323L90 323L90 322L89 322L89 321L88 321L88 320L86 319L86 317L85 317L85 316L84 316L84 315L83 315L83 314L82 314L82 313L81 313L81 312L79 311L79 309L78 309L78 308L77 308L77 307L75 306L75 304L74 304L74 303L72 302L72 300L71 300L71 299L70 299L70 297L68 296L68 294L67 294L67 292L65 291L65 289L64 289L64 287L62 286L62 284L61 284L61 282L60 282L60 280L59 280L59 277L58 277L58 275L57 275L57 273L56 273L56 271L55 271L55 268L54 268L54 266L53 266L53 263L52 263L52 260L51 260L51 257L49 256L49 257L47 257L46 259L44 259L44 255L43 255ZM145 245L146 245L146 244L149 244L149 243L153 243L153 242L156 242L156 241L159 241L159 240L162 240L162 239L164 239L164 238L166 238L166 237L168 237L169 235L171 235L171 234L173 234L174 232L176 232L177 230L179 230L179 229L180 229L180 228L181 228L182 226L184 226L184 225L185 225L185 224L186 224L186 223L187 223L187 222L188 222L188 221L189 221L189 220L190 220L190 219L191 219L191 218L192 218L192 217L193 217L193 216L194 216L194 215L195 215L196 213L199 213L199 214L201 214L201 215L202 215L202 217L203 217L203 218L204 218L204 219L205 219L205 220L206 220L206 221L207 221L207 222L208 222L208 223L209 223L210 225L212 225L212 226L213 226L213 227L214 227L215 229L217 229L217 230L218 230L218 231L220 231L221 233L223 233L223 234L225 234L226 236L228 236L228 237L230 237L230 238L232 238L232 239L235 239L235 240L237 240L237 241L240 241L240 242L243 242L243 243L248 243L248 244L250 244L250 247L251 247L251 260L250 260L250 261L242 261L242 260L239 260L239 259L236 259L236 258L233 258L233 257L231 257L231 256L228 256L228 255L226 255L226 254L223 254L223 253L221 253L221 252L219 252L218 250L216 250L216 249L214 249L213 247L211 247L211 246L209 246L209 245L208 245L208 244L206 244L205 242L203 242L203 241L202 241L202 240L201 240L201 239L200 239L199 237L197 237L197 238L196 238L195 240L193 240L193 241L192 241L192 242L191 242L190 244L188 244L188 245L187 245L187 246L185 246L184 248L182 248L182 249L180 249L179 251L177 251L177 252L175 252L175 253L173 253L173 254L171 254L171 255L169 255L169 256L166 256L166 257L164 257L164 258L161 258L161 259L158 259L158 260L154 260L154 261L146 261L146 259L145 259ZM24 292L25 292L25 288L26 288L26 286L27 286L27 285L28 285L28 284L29 284L29 283L30 283L30 282L31 282L32 280L34 280L34 279L36 279L36 278L39 278L39 277L46 277L46 278L49 278L49 279L52 279L52 280L53 280L54 282L56 282L56 283L57 283L57 285L59 286L59 288L60 288L60 291L61 291L61 299L60 299L60 302L59 302L59 304L58 304L58 306L57 306L57 307L56 307L56 308L55 308L55 309L54 309L53 311L51 311L51 312L49 312L49 313L44 313L44 314L41 314L41 313L36 313L36 312L33 312L32 310L30 310L30 309L29 309L29 308L27 307L27 305L26 305L26 303L25 303L25 300L24 300Z"/>
</svg>
