<svg xmlns="http://www.w3.org/2000/svg" viewBox="0 0 1236 390" role="img" aria-label="MAARU monochrome logo">
  <path fill="#172B33" fill-rule="evenodd" d="M180 37L181 37L181 34L182 34L182 32L184 31L184 29L185 29L185 28L187 28L188 26L190 26L190 25L192 25L192 24L204 24L204 25L206 25L206 26L208 26L208 27L209 27L209 28L210 28L210 29L211 29L211 30L212 30L212 31L214 32L214 34L215 34L215 37L216 37L216 47L215 47L215 49L214 49L214 51L213 51L213 53L212 53L212 54L211 54L211 55L210 55L209 57L207 57L207 58L205 58L205 59L202 59L202 60L194 60L194 59L191 59L191 58L189 58L189 57L187 57L187 56L186 56L186 55L185 55L185 54L183 53L183 51L181 50L181 47L180 47ZM226 62L227 62L227 59L228 59L228 58L229 58L230 56L239 56L239 57L243 57L243 58L246 58L246 59L249 59L249 60L251 60L251 61L254 61L254 62L256 62L256 63L259 63L259 64L261 64L261 65L263 65L263 66L265 66L265 67L267 67L267 68L269 68L269 69L271 69L271 70L273 70L274 72L276 72L277 74L279 74L279 75L281 75L282 77L284 77L285 79L287 79L287 80L288 80L289 82L291 82L291 83L292 83L292 84L293 84L293 85L294 85L295 87L297 87L297 88L298 88L298 89L299 89L299 90L300 90L300 91L301 91L301 92L302 92L302 93L303 93L303 94L304 94L304 95L305 95L305 96L306 96L306 97L307 97L307 98L308 98L308 99L309 99L309 100L311 101L311 103L312 103L312 104L313 104L313 105L314 105L314 106L316 107L316 109L317 109L317 110L319 111L319 113L321 114L321 116L322 116L322 117L323 117L323 119L325 120L325 122L326 122L326 124L328 125L328 127L329 127L329 129L330 129L330 131L331 131L331 133L332 133L332 135L333 135L333 137L334 137L334 139L335 139L335 141L336 141L336 144L337 144L337 146L338 146L338 149L339 149L339 152L340 152L340 155L341 155L341 158L342 158L342 162L343 162L343 166L344 166L344 169L345 169L345 174L346 174L346 179L347 179L347 187L348 187L348 218L347 218L347 225L346 225L346 231L345 231L345 235L344 235L344 239L343 239L343 243L342 243L342 246L341 246L341 249L340 249L340 252L339 252L339 255L338 255L338 257L337 257L337 260L336 260L336 262L335 262L335 264L334 264L334 266L333 266L333 268L332 268L332 270L331 270L331 272L330 272L330 274L328 275L328 277L327 277L327 279L325 280L325 282L323 283L323 285L321 286L321 288L320 288L320 289L318 290L318 292L317 292L317 293L316 293L316 294L314 295L314 297L313 297L313 298L312 298L312 299L311 299L311 300L310 300L310 301L309 301L309 302L308 302L308 303L307 303L307 304L306 304L306 305L305 305L305 306L304 306L303 308L301 308L301 309L300 309L300 310L299 310L299 311L298 311L298 312L297 312L296 314L294 314L294 315L293 315L292 317L290 317L290 318L282 318L282 317L281 317L281 316L280 316L280 315L278 314L278 305L279 305L279 303L280 303L280 302L282 302L282 301L283 301L284 299L286 299L286 298L287 298L288 296L290 296L290 295L291 295L291 294L292 294L292 293L293 293L293 292L294 292L294 291L295 291L295 290L296 290L296 289L297 289L297 288L299 287L299 285L300 285L300 284L301 284L301 283L302 283L302 282L304 281L304 279L305 279L305 278L307 277L307 275L308 275L308 274L309 274L309 272L311 271L311 269L312 269L312 267L314 266L314 264L315 264L315 262L316 262L316 260L317 260L317 258L318 258L318 256L319 256L319 254L320 254L320 251L321 251L321 249L322 249L322 246L323 246L323 243L324 243L324 240L325 240L325 236L326 236L326 233L327 233L327 228L328 228L328 222L329 222L329 215L330 215L330 189L329 189L329 182L328 182L328 176L327 176L327 171L326 171L326 167L325 167L325 164L324 164L324 160L323 160L323 158L322 158L322 155L321 155L321 152L320 152L320 150L319 150L319 147L318 147L318 145L317 145L317 143L316 143L316 141L315 141L315 139L314 139L314 137L313 137L313 135L311 134L311 132L310 132L310 130L308 129L308 127L306 126L306 124L305 124L305 123L303 122L303 120L302 120L302 119L300 118L300 116L299 116L299 115L298 115L298 114L297 114L297 113L296 113L296 112L295 112L295 111L294 111L294 110L293 110L293 109L292 109L292 108L291 108L291 107L290 107L290 106L289 106L289 105L288 105L288 104L287 104L287 103L286 103L286 102L285 102L285 101L284 101L284 100L283 100L282 98L280 98L280 97L279 97L278 95L276 95L276 94L275 94L274 92L272 92L272 91L271 91L271 90L269 90L268 88L266 88L266 87L264 87L263 85L261 85L261 84L259 84L259 83L257 83L257 82L255 82L255 81L252 81L252 80L250 80L250 79L248 79L248 78L245 78L245 77L243 77L243 76L240 76L240 75L237 75L237 74L234 74L234 73L231 73L231 72L229 72L229 71L228 71L228 69L227 69L227 67L226 67ZM73 120L74 120L74 117L75 117L75 115L76 115L76 114L77 114L77 113L79 112L79 110L80 110L80 109L81 109L81 108L82 108L82 107L84 106L84 104L85 104L85 103L86 103L86 102L87 102L87 101L88 101L88 100L89 100L89 99L90 99L90 98L91 98L91 97L92 97L93 95L95 95L95 94L96 94L96 93L97 93L97 92L98 92L99 90L101 90L101 89L102 89L103 87L105 87L106 85L108 85L108 84L109 84L109 83L111 83L112 81L114 81L114 80L116 80L116 79L118 79L118 78L120 78L120 77L122 77L122 76L124 76L124 75L126 75L126 74L129 74L129 73L131 73L131 72L134 72L134 71L137 71L137 70L142 70L142 69L148 69L148 68L160 68L160 67L165 67L165 68L181 68L181 69L187 69L187 70L191 70L191 71L195 71L195 72L199 72L199 73L202 73L202 74L204 74L204 75L207 75L207 76L209 76L209 77L212 77L212 78L214 78L214 79L216 79L216 80L218 80L219 82L221 82L221 83L223 83L224 85L226 85L227 87L229 87L230 89L232 89L232 90L233 90L233 91L234 91L234 92L236 93L236 97L237 97L237 100L236 100L236 103L235 103L235 104L234 104L233 106L231 106L231 107L225 107L225 106L223 106L222 104L220 104L220 103L219 103L218 101L216 101L215 99L213 99L213 98L211 98L211 97L209 97L209 96L207 96L207 95L205 95L205 94L203 94L203 93L201 93L201 92L199 92L199 91L196 91L196 90L193 90L193 89L189 89L189 88L185 88L185 87L179 87L179 86L168 86L168 85L160 85L160 86L150 86L150 87L144 87L144 88L141 88L141 89L137 89L137 90L135 90L135 91L132 91L132 92L130 92L130 93L128 93L128 94L126 94L126 95L124 95L124 96L122 96L122 97L120 97L120 98L119 98L119 99L117 99L116 101L114 101L114 102L113 102L112 104L110 104L110 105L109 105L109 106L108 106L107 108L105 108L105 109L104 109L104 110L103 110L103 111L102 111L102 112L101 112L101 113L100 113L100 114L99 114L99 115L98 115L98 116L97 116L97 117L95 118L95 120L94 120L94 121L93 121L93 122L92 122L92 123L90 124L90 126L89 126L89 127L88 127L87 129L84 129L84 130L80 130L80 129L78 129L78 128L76 128L76 127L75 127L75 125L74 125L74 122L73 122ZM937 125L949 125L949 124L951 124L951 125L1019 125L1019 126L1023 126L1023 127L1026 127L1026 128L1029 128L1029 129L1031 129L1031 130L1033 130L1033 131L1035 131L1035 132L1037 132L1038 134L1040 134L1041 136L1043 136L1043 137L1044 137L1044 138L1045 138L1045 139L1046 139L1046 140L1047 140L1047 141L1049 142L1049 144L1050 144L1050 145L1052 146L1052 148L1054 149L1054 151L1055 151L1055 153L1056 153L1056 155L1057 155L1057 157L1058 157L1058 160L1059 160L1059 163L1060 163L1060 168L1061 168L1061 184L1060 184L1060 188L1059 188L1059 192L1058 192L1058 194L1057 194L1057 197L1056 197L1056 199L1055 199L1055 201L1054 201L1054 203L1052 204L1052 206L1051 206L1051 207L1049 208L1049 210L1048 210L1048 211L1047 211L1047 212L1046 212L1046 213L1045 213L1044 215L1042 215L1042 216L1041 216L1040 218L1038 218L1037 220L1035 220L1035 221L1033 221L1033 222L1031 222L1031 223L1029 223L1029 224L1026 224L1026 225L1023 225L1023 226L1018 226L1018 229L1019 229L1019 230L1020 230L1020 231L1022 232L1022 234L1023 234L1023 235L1024 235L1024 236L1026 237L1026 239L1027 239L1027 240L1029 241L1029 243L1030 243L1030 244L1032 245L1032 247L1033 247L1033 248L1034 248L1034 249L1036 250L1036 252L1037 252L1037 253L1039 254L1039 256L1040 256L1040 257L1041 257L1041 258L1043 259L1043 261L1044 261L1044 262L1045 262L1045 263L1047 264L1047 266L1048 266L1048 267L1049 267L1049 268L1051 269L1051 271L1052 271L1052 272L1053 272L1053 273L1055 274L1055 276L1056 276L1056 278L1051 278L1051 277L1040 277L1040 278L1038 278L1038 277L1034 277L1034 276L1033 276L1033 275L1031 274L1031 272L1030 272L1030 271L1028 270L1028 268L1027 268L1027 267L1026 267L1026 266L1025 266L1025 265L1023 264L1023 262L1022 262L1022 261L1020 260L1020 258L1019 258L1019 257L1017 256L1017 254L1016 254L1016 253L1015 253L1015 252L1013 251L1013 249L1012 249L1012 248L1011 248L1011 247L1009 246L1009 244L1008 244L1008 243L1007 243L1007 242L1005 241L1005 239L1004 239L1004 238L1003 238L1003 237L1001 236L1001 234L1000 234L1000 233L999 233L999 232L997 231L997 229L996 229L996 228L995 228L995 227L993 226L993 224L992 224L992 223L991 223L991 222L990 222L990 221L988 220L988 218L987 218L987 217L986 217L986 216L984 215L984 211L985 211L985 210L1014 210L1014 209L1018 209L1018 208L1021 208L1021 207L1024 207L1024 206L1026 206L1027 204L1029 204L1029 203L1030 203L1031 201L1033 201L1033 200L1034 200L1034 198L1035 198L1035 197L1037 196L1037 194L1039 193L1039 191L1040 191L1040 189L1041 189L1041 185L1042 185L1042 181L1043 181L1043 170L1042 170L1042 166L1041 166L1041 163L1040 163L1040 161L1039 161L1039 159L1038 159L1038 157L1037 157L1037 156L1036 156L1036 154L1035 154L1035 153L1034 153L1034 152L1033 152L1032 150L1030 150L1030 149L1029 149L1028 147L1026 147L1026 146L1024 146L1024 145L1022 145L1022 144L1018 144L1018 143L1014 143L1014 142L955 142L955 277L946 277L946 278L941 278L941 277L938 277L938 278L937 278ZM1094 125L1108 125L1108 124L1112 124L1112 125L1113 125L1113 126L1112 126L1112 225L1113 225L1113 232L1114 232L1114 236L1115 236L1115 238L1116 238L1116 241L1118 242L1118 244L1119 244L1119 246L1120 246L1120 247L1121 247L1121 248L1122 248L1122 249L1123 249L1123 250L1124 250L1124 251L1125 251L1125 252L1126 252L1126 253L1127 253L1128 255L1130 255L1131 257L1133 257L1133 258L1135 258L1135 259L1138 259L1138 260L1141 260L1141 261L1145 261L1145 262L1161 262L1161 261L1166 261L1166 260L1169 260L1169 259L1171 259L1171 258L1173 258L1173 257L1175 257L1175 256L1177 256L1178 254L1180 254L1180 253L1181 253L1181 252L1182 252L1182 251L1183 251L1183 250L1184 250L1184 249L1186 248L1186 246L1187 246L1187 245L1189 244L1189 242L1190 242L1190 240L1191 240L1191 237L1192 237L1192 234L1193 234L1193 230L1194 230L1194 125L1211 125L1211 124L1212 124L1212 232L1211 232L1211 237L1210 237L1210 240L1209 240L1209 243L1208 243L1208 246L1207 246L1207 248L1206 248L1206 250L1205 250L1205 252L1203 253L1203 255L1201 256L1201 258L1200 258L1200 259L1199 259L1199 260L1198 260L1198 261L1196 262L1196 264L1194 264L1194 265L1193 265L1193 266L1192 266L1192 267L1191 267L1190 269L1188 269L1188 270L1187 270L1187 271L1185 271L1184 273L1182 273L1182 274L1180 274L1180 275L1177 275L1177 276L1175 276L1175 277L1171 277L1171 278L1167 278L1167 279L1162 279L1162 280L1145 280L1145 279L1139 279L1139 278L1135 278L1135 277L1132 277L1132 276L1129 276L1129 275L1127 275L1127 274L1125 274L1125 273L1123 273L1123 272L1121 272L1121 271L1120 271L1119 269L1117 269L1117 268L1116 268L1115 266L1113 266L1113 265L1112 265L1112 264L1111 264L1111 263L1110 263L1110 262L1108 261L1108 259L1107 259L1107 258L1105 257L1105 255L1103 254L1103 252L1102 252L1102 250L1100 249L1100 246L1099 246L1099 244L1098 244L1098 241L1097 241L1097 238L1096 238L1096 233L1095 233L1095 225L1094 225ZM447 125L452 125L452 126L453 126L453 128L454 128L454 129L455 129L455 130L456 130L456 131L458 132L458 134L459 134L459 135L460 135L460 136L461 136L461 137L462 137L462 138L464 139L464 141L465 141L465 142L466 142L466 143L467 143L467 144L469 145L469 147L470 147L470 148L471 148L471 149L472 149L472 150L473 150L473 151L475 152L475 154L476 154L476 155L477 155L477 156L478 156L478 157L480 158L480 160L481 160L481 161L482 161L482 162L483 162L483 163L485 164L485 166L486 166L486 167L487 167L487 168L488 168L488 169L489 169L489 170L491 171L491 173L492 173L492 174L493 174L493 175L494 175L494 176L496 177L496 179L497 179L497 180L498 180L498 181L500 182L500 184L501 184L501 185L502 185L502 186L503 186L503 187L505 188L505 190L506 190L506 191L507 191L507 192L508 192L508 193L510 194L510 196L511 196L511 197L512 197L512 198L513 198L513 199L514 199L514 200L515 200L516 202L518 202L518 200L519 200L519 199L520 199L520 198L521 198L521 197L522 197L522 196L524 195L524 193L525 193L525 192L526 192L526 191L527 191L527 190L529 189L529 187L530 187L530 186L531 186L531 185L532 185L532 184L534 183L534 181L535 181L535 180L536 180L536 179L538 178L538 176L539 176L539 175L540 175L540 174L541 174L541 173L542 173L542 172L544 171L544 169L545 169L545 168L546 168L546 167L548 166L548 164L549 164L549 163L550 163L550 162L551 162L551 161L553 160L553 158L554 158L554 157L555 157L555 156L556 156L556 155L558 154L558 152L559 152L559 151L560 151L560 150L561 150L561 149L563 148L563 146L564 146L564 145L565 145L565 144L566 144L566 143L568 142L568 140L569 140L569 139L570 139L570 138L571 138L571 137L572 137L572 136L574 135L574 133L575 133L575 132L576 132L576 131L577 131L577 130L578 130L578 129L580 128L580 126L581 126L581 125L586 125L586 277L568 277L568 170L567 170L567 171L566 171L566 172L564 173L564 175L563 175L563 176L562 176L562 177L561 177L561 178L560 178L560 179L558 180L558 182L557 182L557 183L556 183L556 184L555 184L555 185L553 186L553 188L552 188L552 189L551 189L551 190L550 190L550 191L548 192L548 194L547 194L547 195L546 195L546 196L545 196L545 197L544 197L544 198L542 199L542 201L541 201L541 202L540 202L540 203L539 203L539 204L537 205L537 207L536 207L536 208L535 208L535 209L534 209L534 210L532 211L532 213L531 213L531 214L530 214L530 215L528 216L528 218L527 218L527 219L526 219L526 220L525 220L525 221L524 221L524 222L522 223L522 225L521 225L521 226L520 226L520 227L519 227L518 229L515 229L515 228L514 228L514 227L512 226L512 224L511 224L511 223L510 223L510 222L509 222L509 221L507 220L507 218L506 218L506 217L505 217L505 216L504 216L504 215L502 214L502 212L501 212L501 211L500 211L500 210L498 209L498 207L497 207L497 206L496 206L496 205L495 205L495 204L494 204L494 203L493 203L493 202L491 201L491 199L490 199L490 198L489 198L489 197L488 197L488 196L486 195L486 193L485 193L485 192L484 192L484 191L483 191L483 190L481 189L481 187L480 187L480 186L479 186L479 185L478 185L478 184L477 184L477 183L475 182L475 180L474 180L474 179L473 179L473 178L472 178L472 177L470 176L470 174L469 174L469 173L468 173L468 172L467 172L467 171L465 170L465 277L455 277L455 278L449 278L449 277L447 277ZM614 276L615 276L615 274L616 274L616 272L617 272L617 270L618 270L618 268L619 268L619 266L620 266L620 264L621 264L621 262L622 262L622 260L623 260L623 257L624 257L624 255L625 255L625 253L626 253L626 251L627 251L627 249L628 249L628 247L629 247L629 245L630 245L630 242L631 242L631 240L632 240L632 238L633 238L633 236L634 236L634 233L635 233L635 231L636 231L636 229L637 229L637 227L638 227L638 225L639 225L639 223L640 223L640 221L641 221L641 218L642 218L642 216L643 216L643 214L644 214L644 212L645 212L645 209L646 209L646 207L647 207L647 205L648 205L648 203L649 203L649 201L650 201L650 199L651 199L651 196L652 196L652 194L653 194L653 192L654 192L654 190L655 190L655 188L656 188L656 185L657 185L657 183L658 183L658 181L659 181L659 179L660 179L660 177L661 177L661 175L662 175L662 172L663 172L663 170L664 170L664 168L665 168L665 166L666 166L666 163L667 163L667 161L668 161L668 159L669 159L669 157L670 157L670 155L671 155L671 152L672 152L672 150L673 150L673 148L674 148L674 146L675 146L675 144L676 144L676 142L677 142L677 139L678 139L678 137L679 137L679 135L680 135L680 133L681 133L681 131L682 131L682 129L683 129L683 127L684 127L685 125L689 125L689 127L690 127L690 129L691 129L691 131L692 131L692 133L693 133L693 136L694 136L694 138L695 138L695 140L696 140L696 142L697 142L697 144L698 144L698 146L699 146L699 148L700 148L700 151L701 151L701 153L702 153L702 155L703 155L703 157L704 157L704 159L705 159L705 161L706 161L706 164L707 164L707 166L708 166L708 168L709 168L709 170L710 170L710 172L711 172L711 175L712 175L712 177L713 177L713 179L714 179L714 181L715 181L715 183L716 183L716 185L717 185L717 187L718 187L718 190L719 190L719 192L720 192L720 194L721 194L721 196L722 196L722 198L723 198L723 200L724 200L724 203L725 203L725 205L726 205L726 207L727 207L727 209L728 209L728 211L729 211L729 214L730 214L730 216L731 216L731 218L732 218L732 220L733 220L733 222L734 222L734 225L735 225L735 227L736 227L736 229L737 229L737 231L738 231L738 233L739 233L739 235L740 235L740 238L741 238L741 240L742 240L742 242L743 242L743 244L744 244L744 247L745 247L745 249L746 249L746 251L747 251L747 253L748 253L748 255L749 255L749 257L750 257L750 260L751 260L751 262L752 262L752 264L753 264L753 266L754 266L754 268L755 268L755 270L756 270L756 273L757 273L757 275L758 275L758 278L754 278L754 277L740 277L740 278L739 278L739 277L738 277L738 274L737 274L737 272L736 272L736 270L735 270L735 268L734 268L734 265L733 265L733 263L732 263L732 261L731 261L731 259L730 259L730 257L729 257L729 254L728 254L728 252L727 252L727 250L726 250L726 248L725 248L725 246L724 246L724 243L723 243L723 241L722 241L722 239L721 239L721 237L720 237L720 234L719 234L719 232L718 232L718 230L717 230L717 228L716 228L716 226L715 226L715 224L714 224L714 221L713 221L713 219L712 219L712 217L711 217L711 215L710 215L710 212L709 212L709 210L708 210L708 208L707 208L707 206L706 206L706 204L705 204L705 202L704 202L704 199L703 199L703 197L702 197L702 195L701 195L701 193L700 193L700 190L699 190L699 188L698 188L698 186L697 186L697 184L696 184L696 182L695 182L695 179L694 179L694 177L693 177L693 175L692 175L692 173L691 173L691 171L690 171L690 169L689 169L689 166L688 166L688 164L687 164L687 163L685 164L685 166L684 166L684 169L683 169L683 171L682 171L682 173L681 173L681 175L680 175L680 177L679 177L679 179L678 179L678 182L677 182L677 184L676 184L676 186L675 186L675 188L674 188L674 191L673 191L673 193L672 193L672 195L671 195L671 197L670 197L670 199L669 199L669 202L668 202L668 204L667 204L667 206L666 206L666 208L665 208L665 211L664 211L664 213L663 213L663 215L662 215L662 218L661 218L661 220L660 220L660 222L659 222L659 224L658 224L658 226L657 226L657 228L656 228L656 230L655 230L655 233L654 233L654 235L653 235L653 237L652 237L652 239L651 239L651 241L650 241L650 244L649 244L649 246L648 246L648 248L647 248L647 250L646 250L646 252L645 252L645 255L644 255L644 257L643 257L643 259L642 259L642 261L641 261L641 263L640 263L640 266L639 266L639 268L638 268L638 270L637 270L637 272L636 272L636 274L635 274L635 277L634 277L634 278L621 278L621 277L614 277ZM767 276L768 276L768 274L769 274L769 272L770 272L770 270L771 270L771 268L772 268L772 266L773 266L773 263L774 263L774 261L775 261L775 259L776 259L776 257L777 257L777 255L778 255L778 252L779 252L779 250L780 250L780 248L781 248L781 246L782 246L782 244L783 244L783 242L784 242L784 239L785 239L785 237L786 237L786 235L787 235L787 233L788 233L788 231L789 231L789 229L790 229L790 226L791 226L791 224L792 224L792 222L793 222L793 220L794 220L794 218L795 218L795 215L796 215L796 213L797 213L797 211L798 211L798 209L799 209L799 207L800 207L800 204L801 204L801 202L802 202L802 200L803 200L803 198L804 198L804 196L805 196L805 193L806 193L806 191L807 191L807 189L808 189L808 187L809 187L809 185L810 185L810 183L811 183L811 180L812 180L812 178L813 178L813 176L814 176L814 174L815 174L815 172L816 172L816 169L817 169L817 167L818 167L818 165L819 165L819 163L820 163L820 161L821 161L821 159L822 159L822 156L823 156L823 154L824 154L824 152L825 152L825 150L826 150L826 148L827 148L827 145L828 145L828 143L829 143L829 141L830 141L830 139L831 139L831 137L832 137L832 135L833 135L833 133L834 133L834 130L835 130L835 128L836 128L836 126L837 126L837 125L841 125L841 126L843 127L843 129L844 129L844 132L845 132L845 134L846 134L846 136L847 136L847 138L848 138L848 140L849 140L849 143L850 143L850 145L851 145L851 147L852 147L852 149L853 149L853 151L854 151L854 153L855 153L855 155L856 155L856 158L857 158L857 160L858 160L858 162L859 162L859 164L860 164L860 166L861 166L861 168L862 168L862 171L863 171L863 173L864 173L864 175L865 175L865 177L866 177L866 179L867 179L867 181L868 181L868 184L869 184L869 186L870 186L870 188L871 188L871 190L872 190L872 193L873 193L873 195L874 195L874 197L875 197L875 199L876 199L876 201L877 201L877 203L878 203L878 205L879 205L879 208L880 208L880 210L881 210L881 212L882 212L882 214L883 214L883 216L884 216L884 218L885 218L885 221L886 221L886 223L887 223L887 225L888 225L888 227L889 227L889 230L890 230L890 232L891 232L891 234L892 234L892 236L893 236L893 238L894 238L894 240L895 240L895 243L896 243L896 245L897 245L897 247L898 247L898 249L899 249L899 251L900 251L900 253L901 253L901 256L902 256L902 258L903 258L903 260L904 260L904 262L905 262L905 264L906 264L906 267L907 267L907 269L908 269L908 271L909 271L909 273L910 273L910 275L911 275L911 277L910 277L910 278L909 278L909 277L893 277L893 278L891 277L891 275L890 275L890 272L889 272L889 270L888 270L888 268L887 268L887 266L886 266L886 264L885 264L885 262L884 262L884 259L883 259L883 257L882 257L882 255L881 255L881 253L880 253L880 251L879 251L879 249L878 249L878 246L877 246L877 244L876 244L876 242L875 242L875 240L874 240L874 237L873 237L873 235L872 235L872 233L871 233L871 230L870 230L870 228L869 228L869 226L868 226L868 224L867 224L867 222L866 222L866 220L865 220L865 218L864 218L864 215L863 215L863 213L862 213L862 211L861 211L861 208L860 208L860 206L859 206L859 204L858 204L858 202L857 202L857 200L856 200L856 198L855 198L855 195L854 195L854 193L853 193L853 191L852 191L852 189L851 189L851 187L850 187L850 184L849 184L849 182L848 182L848 180L847 180L847 178L846 178L846 175L845 175L845 173L844 173L844 171L843 171L843 169L842 169L842 167L841 167L841 165L840 165L840 163L838 163L838 166L837 166L837 168L836 168L836 170L835 170L835 172L834 172L834 174L833 174L833 177L832 177L832 179L831 179L831 181L830 181L830 183L829 183L829 186L828 186L828 188L827 188L827 190L826 190L826 192L825 192L825 194L824 194L824 196L823 196L823 199L822 199L822 201L821 201L821 203L820 203L820 205L819 205L819 208L818 208L818 210L817 210L817 212L816 212L816 214L815 214L815 217L814 217L814 219L813 219L813 221L812 221L812 223L811 223L811 225L810 225L810 227L809 227L809 230L808 230L808 232L807 232L807 234L806 234L806 236L805 236L805 239L804 239L804 241L803 241L803 243L802 243L802 245L801 245L801 247L800 247L800 250L799 250L799 252L798 252L798 254L797 254L797 256L796 256L796 258L795 258L795 260L794 260L794 263L793 263L793 265L792 265L792 267L791 267L791 269L790 269L790 271L789 271L789 274L788 274L788 276L787 276L787 277L776 277L776 278L772 278L772 277L767 277ZM82 250L83 250L83 248L85 247L85 245L87 244L87 242L88 242L88 240L89 240L89 238L91 237L91 235L92 235L92 233L94 232L94 230L95 230L95 228L97 227L97 225L98 225L98 223L100 222L100 220L101 220L101 218L102 218L102 216L104 215L104 213L105 213L105 211L107 210L107 208L108 208L108 206L109 206L109 204L111 203L111 201L112 201L112 199L114 198L114 196L115 196L115 194L117 193L117 191L118 191L118 189L120 188L120 186L121 186L121 184L122 184L122 182L124 181L124 179L125 179L125 177L127 176L127 174L128 174L128 172L130 171L130 169L131 169L131 167L133 166L133 164L134 164L134 162L136 161L136 159L137 159L137 157L139 156L139 154L140 154L140 152L142 151L142 149L143 149L143 147L144 147L145 145L147 145L147 146L148 146L148 147L150 148L150 150L152 151L152 153L153 153L153 155L155 156L155 158L157 159L157 161L159 162L159 164L161 165L161 167L163 168L163 170L165 171L165 173L166 173L166 175L168 176L168 178L170 179L170 181L172 182L172 184L174 185L174 187L176 188L176 190L178 191L178 193L180 194L180 196L182 197L182 199L184 200L184 202L186 203L186 205L187 205L187 206L189 207L189 209L190 209L190 211L189 211L189 212L187 213L187 215L186 215L185 217L183 217L183 218L182 218L181 220L179 220L179 221L178 221L178 220L176 220L176 219L175 219L175 217L173 216L173 214L171 213L171 211L170 211L170 210L168 209L168 207L166 206L166 204L165 204L165 203L164 203L164 201L162 200L162 198L160 197L160 195L158 194L158 192L156 191L156 189L154 188L154 186L152 185L152 183L151 183L151 182L149 181L149 179L148 179L147 177L145 177L145 179L144 179L144 181L142 182L142 184L141 184L141 186L139 187L139 189L138 189L138 191L136 192L136 194L135 194L135 196L133 197L133 199L132 199L132 201L130 202L130 204L129 204L129 206L128 206L128 208L126 209L126 211L124 212L124 214L123 214L123 216L122 216L122 218L120 219L120 221L119 221L119 223L117 224L117 226L116 226L116 228L114 229L114 231L113 231L113 233L112 233L112 235L110 236L110 238L109 238L109 240L107 241L107 243L106 243L106 245L105 245L105 247L103 248L103 250L102 250L102 252L100 253L100 255L99 255L99 257L98 257L98 259L97 259L96 261L93 261L93 262L90 262L90 261L87 261L87 260L85 260L85 259L83 258L83 255L82 255ZM206 209L207 209L207 207L209 206L209 204L211 203L211 201L213 200L213 198L214 198L214 197L216 196L216 194L218 193L218 191L220 190L220 188L222 187L222 185L224 184L224 182L226 181L226 179L228 178L228 176L230 175L230 173L232 172L232 170L233 170L233 168L235 167L235 165L237 164L237 162L239 161L239 159L241 158L241 156L243 155L243 153L245 152L245 150L247 149L247 147L248 147L249 145L251 145L251 146L253 147L253 149L254 149L254 151L256 152L256 154L257 154L257 156L259 157L259 159L260 159L260 161L262 162L262 164L263 164L263 166L264 166L264 167L265 167L265 169L267 170L267 172L268 172L268 174L269 174L269 176L271 177L271 179L273 180L273 182L274 182L274 184L276 185L276 187L277 187L277 189L279 190L279 192L280 192L280 194L282 195L282 197L283 197L283 199L284 199L284 200L285 200L285 202L287 203L287 205L288 205L288 207L289 207L289 209L291 210L291 212L292 212L292 214L294 215L294 217L295 217L295 219L297 220L297 222L298 222L298 224L300 225L300 227L301 227L301 229L303 230L303 232L304 232L304 234L306 235L306 237L307 237L307 239L309 240L309 242L311 243L311 245L312 245L312 247L314 248L314 250L315 250L315 253L314 253L314 257L312 258L312 260L311 260L311 261L307 261L307 262L304 262L304 261L301 261L301 260L299 259L299 257L297 256L297 254L296 254L296 252L295 252L295 250L293 249L293 247L292 247L292 245L291 245L291 243L289 242L289 240L288 240L288 238L287 238L287 236L285 235L285 233L284 233L284 231L282 230L282 228L281 228L281 226L279 225L279 223L278 223L278 221L276 220L276 218L275 218L275 216L273 215L273 213L272 213L272 211L270 210L270 208L269 208L269 206L267 205L267 203L266 203L266 201L265 201L265 200L264 200L264 198L262 197L262 195L261 195L261 193L259 192L259 190L258 190L258 188L256 187L256 185L255 185L255 183L253 182L253 180L252 180L252 178L251 178L250 176L248 177L248 179L246 180L246 182L245 182L245 184L244 184L244 185L242 186L242 188L240 189L240 191L238 192L238 194L236 195L236 197L235 197L235 198L233 199L233 201L231 202L231 204L229 205L229 207L227 208L227 210L226 210L226 211L224 212L224 214L222 215L222 217L221 217L221 218L219 219L219 221L217 221L217 220L215 220L215 219L214 219L214 218L213 218L212 216L210 216L210 215L208 214L208 212L206 211ZM43 195L44 195L44 188L45 188L45 182L46 182L46 177L47 177L47 173L48 173L48 169L49 169L49 166L50 166L50 163L51 163L51 160L52 160L52 157L53 157L53 154L54 154L54 152L55 152L55 150L56 150L56 149L57 149L58 147L61 147L61 146L64 146L64 147L67 147L67 148L69 148L69 149L70 149L70 151L71 151L71 153L72 153L72 158L71 158L71 160L70 160L70 163L69 163L69 166L68 166L68 168L67 168L67 171L66 171L66 175L65 175L65 179L64 179L64 184L63 184L63 189L62 189L62 196L61 196L61 223L62 223L62 230L63 230L63 236L64 236L64 241L65 241L65 245L66 245L66 249L67 249L67 252L68 252L68 255L69 255L69 258L70 258L70 260L71 260L71 263L72 263L72 266L73 266L73 268L74 268L74 270L75 270L75 272L76 272L76 274L77 274L77 276L78 276L78 278L80 279L80 281L81 281L81 283L83 284L83 286L84 286L84 288L85 288L85 289L86 289L86 291L87 291L87 292L89 293L89 295L90 295L90 296L92 297L92 299L93 299L93 300L94 300L94 301L95 301L95 302L96 302L96 303L98 304L98 306L100 306L100 307L101 307L101 308L102 308L102 309L103 309L103 310L104 310L104 311L105 311L105 312L106 312L106 313L107 313L107 314L108 314L108 315L109 315L110 317L112 317L112 318L113 318L113 319L114 319L115 321L117 321L117 322L118 322L119 324L121 324L122 326L124 326L124 327L125 327L125 328L127 328L128 330L130 330L130 331L132 331L133 333L135 333L135 334L137 334L137 335L139 335L139 336L142 336L142 337L144 337L144 338L146 338L146 339L148 339L148 340L151 340L151 341L154 341L154 342L157 342L157 343L160 343L160 344L164 344L164 345L168 345L168 346L173 346L173 347L179 347L179 348L183 348L183 349L184 349L184 350L185 350L185 351L187 352L187 355L188 355L188 358L187 358L187 361L186 361L186 363L185 363L185 364L183 364L183 365L180 365L180 366L178 366L178 365L172 365L172 364L166 364L166 363L162 363L162 362L158 362L158 361L154 361L154 360L151 360L151 359L148 359L148 358L145 358L145 357L143 357L143 356L140 356L140 355L138 355L138 354L135 354L135 353L133 353L133 352L131 352L131 351L129 351L129 350L127 350L127 349L125 349L124 347L122 347L122 346L120 346L119 344L117 344L117 343L115 343L114 341L112 341L111 339L109 339L109 338L108 338L107 336L105 336L105 335L104 335L104 334L103 334L102 332L100 332L100 331L99 331L99 330L98 330L98 329L97 329L97 328L96 328L96 327L95 327L94 325L92 325L92 324L91 324L91 323L90 323L90 322L89 322L89 321L88 321L88 320L86 319L86 317L85 317L85 316L84 316L84 315L83 315L83 314L82 314L82 313L81 313L81 312L79 311L79 309L78 309L78 308L77 308L77 307L75 306L75 304L74 304L74 303L72 302L72 300L71 300L71 299L70 299L70 297L68 296L68 294L67 294L67 292L65 291L65 289L64 289L64 287L62 286L62 284L61 284L61 282L60 282L60 280L59 280L59 277L58 277L58 275L57 275L57 273L56 273L56 271L55 271L55 268L54 268L54 266L53 266L53 263L52 263L52 260L51 260L51 257L49 256L49 257L47 257L46 259L44 259L44 255L43 255ZM145 245L146 245L146 244L149 244L149 243L153 243L153 242L156 242L156 241L159 241L159 240L162 240L162 239L164 239L164 238L166 238L166 237L168 237L169 235L171 235L171 234L173 234L174 232L176 232L177 230L179 230L179 229L180 229L180 228L181 228L182 226L184 226L184 225L185 225L185 224L186 224L186 223L187 223L187 222L188 222L188 221L189 221L189 220L190 220L190 219L191 219L191 218L192 218L192 217L193 217L193 216L194 216L194 215L195 215L196 213L199 213L199 214L201 214L201 215L202 215L202 217L203 217L203 218L204 218L204 219L205 219L205 220L206 220L206 221L207 221L207 222L208 222L208 223L209 223L210 225L212 225L212 226L213 226L213 227L214 227L215 229L217 229L217 230L218 230L218 231L220 231L221 233L223 233L223 234L225 234L226 236L228 236L228 237L230 237L230 238L232 238L232 239L235 239L235 240L237 240L237 241L240 241L240 242L243 242L243 243L248 243L248 244L250 244L250 247L251 247L251 260L250 260L250 261L242 261L242 260L239 260L239 259L236 259L236 258L233 258L233 257L231 257L231 256L228 256L228 255L226 255L226 254L223 254L223 253L221 253L221 252L219 252L218 250L216 250L216 249L214 249L213 247L211 247L211 246L209 246L209 245L208 245L208 244L206 244L205 242L203 242L203 241L202 241L202 240L201 240L201 239L200 239L199 237L197 237L197 238L196 238L195 240L193 240L193 241L192 241L192 242L191 242L190 244L188 244L188 245L187 245L187 246L185 246L184 248L182 248L182 249L180 249L179 251L177 251L177 252L175 252L175 253L173 253L173 254L171 254L171 255L169 255L169 256L166 256L166 257L164 257L164 258L161 258L161 259L158 259L158 260L154 260L154 261L146 261L146 259L145 259ZM658 234L659 234L659 232L660 232L660 229L661 229L661 227L662 227L662 225L663 225L663 223L664 223L664 221L665 221L665 220L669 220L669 221L673 221L673 222L679 222L679 223L695 223L695 222L701 222L701 221L704 221L704 220L708 220L708 221L709 221L709 223L710 223L710 225L711 225L711 227L712 227L712 229L713 229L713 231L714 231L714 234L715 234L715 235L714 235L714 236L712 236L712 237L709 237L709 238L704 238L704 239L700 239L700 240L674 240L674 239L669 239L669 238L665 238L665 237L661 237L661 236L659 236ZM811 233L812 233L812 231L813 231L813 229L814 229L814 227L815 227L815 225L816 225L816 223L817 223L817 220L822 220L822 221L826 221L826 222L831 222L831 223L847 223L847 222L853 222L853 221L857 221L857 220L861 220L861 221L862 221L862 223L863 223L863 225L864 225L864 227L865 227L865 229L866 229L866 232L867 232L867 234L868 234L868 236L865 236L865 237L862 237L862 238L857 238L857 239L852 239L852 240L826 240L826 239L821 239L821 238L817 238L817 237L814 237L814 236L811 236ZM24 292L25 292L25 288L26 288L26 286L27 286L27 285L28 285L28 284L29 284L29 283L30 283L30 282L31 282L32 280L34 280L34 279L36 279L36 278L39 278L39 277L46 277L46 278L49 278L49 279L52 279L52 280L53 280L54 282L56 282L56 283L57 283L57 285L59 286L59 288L60 288L60 291L61 291L61 299L60 299L60 302L59 302L59 304L58 304L58 306L57 306L57 307L56 307L56 308L55 308L55 309L54 309L53 311L51 311L51 312L49 312L49 313L44 313L44 314L41 314L41 313L36 313L36 312L33 312L32 310L30 310L30 309L29 309L29 308L27 307L27 305L26 305L26 303L25 303L25 300L24 300ZM332 291L333 291L333 288L334 288L334 286L336 285L336 283L337 283L338 281L340 281L340 280L342 280L342 279L344 279L344 278L347 278L347 277L354 277L354 278L357 278L357 279L359 279L359 280L361 280L361 281L362 281L362 282L363 282L363 283L364 283L364 284L366 285L366 287L367 287L367 289L368 289L368 293L369 293L369 298L368 298L368 302L367 302L367 304L366 304L366 306L365 306L365 307L364 307L364 308L363 308L362 310L360 310L359 312L356 312L356 313L344 313L344 312L341 312L340 310L338 310L338 309L337 309L337 308L335 307L335 305L334 305L334 303L333 303L333 300L332 300ZM205 354L206 354L206 352L207 352L207 351L208 351L209 349L211 349L211 348L220 348L220 347L227 347L227 346L232 346L232 345L238 345L238 344L242 344L242 343L245 343L245 342L249 342L249 341L252 341L252 340L255 340L255 339L258 339L258 338L261 338L261 337L264 337L264 336L266 336L266 335L269 335L269 334L271 334L271 333L273 333L273 332L275 332L275 331L277 331L277 330L279 330L279 329L281 329L281 328L283 328L283 327L285 327L285 326L287 326L288 324L290 324L290 323L292 323L293 321L295 321L295 320L296 320L297 318L299 318L299 317L300 317L301 315L303 315L303 314L304 314L304 313L305 313L306 311L308 311L309 309L317 309L317 310L319 310L319 311L321 312L321 314L322 314L322 321L321 321L321 323L320 323L319 325L317 325L317 326L316 326L316 327L315 327L314 329L312 329L312 330L311 330L310 332L308 332L307 334L305 334L305 335L304 335L304 336L302 336L301 338L299 338L299 339L297 339L296 341L294 341L294 342L292 342L291 344L289 344L289 345L287 345L287 346L285 346L285 347L283 347L283 348L281 348L281 349L279 349L279 350L276 350L276 351L274 351L274 352L272 352L272 353L269 353L269 354L266 354L266 355L264 355L264 356L261 356L261 357L257 357L257 358L254 358L254 359L251 359L251 360L247 360L247 361L243 361L243 362L239 362L239 363L234 363L234 364L227 364L227 365L220 365L220 366L210 366L210 365L208 365L208 364L206 363L206 360L205 360Z"/>
</svg>
